<svg xmlns="http://www.w3.org/2000/svg" version="1.1" xmlns:xlink="http://www.w3.org/1999/xlink" xmlns:svgjs="http://svgjs.dev/svgjs" viewBox="0 0 600 600"><path d="M-57.681813401145604 153.70598227476876C-115.5558253945538 57.44614512419503 -99.61094014064756 -21.3924330999871 1.3733013449481462 -41.175895624401164C102.35754283054385 -60.95935814881523 288.3811405478289 -21.687704973461223 346.25515254123655 74.57213217711251C404.1291645346444 170.83196932768624 333.8535908041758 324.0799904534797 232.869349318581 343.86345297789376C131.88510783298526 363.6469155023078 0.19219859226259928 249.9658194253425 -57.681813401145604 153.70598227476876C-115.5558253945538 57.44614512419503 -99.61094014064756 -21.3924330999871 1.3733013449481462 -41.175895624401164 " fill="hsl(50, 98%, 60%)" transform="matrix(-0.48763969158928355,-0.844616721619857,-0.844616721619857,0.48763969158928355,493.99721221579836,343.4562901700636)" fill-opacity="1"></path><path d="M181.8817169783033 271.2838651128627C124.0077049848951 175.02402796228898 139.95259023880135 96.18544973810685 240.93683172439705 76.40198721369279C341.9210732099927 56.61852468927873 527.9446709272779 95.89017786463273 585.8186829206858 192.15001501520646C643.6926949140935 288.4098521657802 573.4171211836253 441.657873291573 472.4328796980298 461.4413358159863C371.4486382124341 481.2247983403996 239.7557289717115 367.5437022634364 181.8817169783033 271.2838651128627C124.0077049848951 175.02402796228898 139.95259023880135 96.18544973810685 240.93683172439705 76.40198721369279 " fill-opacity="1" fill="none" opacity="1" stroke-opacity="0.67" stroke-width="15" stroke="hsl(520, 58%, 40%)" transform="matrix(-1.0278740933351154,1.828883681879364e-16,-1.828883681879364e-16,-1.0278740933351154,665.3577906530487,561.2628496332659)"></path><defs><linearGradient id="SvgjsLinearGradient1000"><stop stop-color="hsl(50, 98%, 60%)" offset="0"></stop><stop stop-color="hsl(50, 98%, 80%)" offset="1"></stop></linearGradient><radialGradient id="SvgjsRadialGradient1001"><stop stop-color="hsl(50, 98%, 60%)" offset="0"></stop><stop stop-color="hsl(50, 98%, 80%)" offset="1"></stop></radialGradient></defs></svg>